<?xml version="1.0" encoding="UTF-8" standalone="no"?>
<!DOCTYPE svg PUBLIC "-//W3C//DTD SVG 1.0//EN"
"http://www.w3.org/TR/2001/REC-SVG-20010904/DTD/svg10.dtd">
<!-- Created with Inkscape (http://www.inkscape.org/) -->
<svg
   id="svg1089"
   sodipodi:version="0.32"
   inkscape:version="0.38.1"
   xmlns="http://www.w3.org/2000/svg"
   xmlns:sodipodi="http://sodipodi.sourceforge.net/DTD/sodipodi-0.dtd"
   xmlns:inkscape="http://www.inkscape.org/namespaces/inkscape"
   xmlns:xlink="http://www.w3.org/1999/xlink"
   width="210mm"
   height="297mm"
   sodipodi:docbase="/home/lion"
   sodipodi:docname="logo.svg">
  <defs
     id="defs1091" />
  <sodipodi:namedview
     id="base"
     pagecolor="#ffffff"
     bordercolor="#666666"
     borderopacity="1.0"
     inkscape:pageopacity="0.0"
     inkscape:pageshadow="2"
     inkscape:zoom="1.0000000"
     inkscape:cx="465.25952"
     inkscape:cy="417.36285"
     inkscape:window-width="1016"
     inkscape:window-height="738"
     inkscape:window-x="0"
     inkscape:window-y="0" />
  <path
     style="fill:none;fill-rule:evenodd;stroke:black;stroke-opacity:1;stroke-width:6.2500000;stroke-linejoin:miter;stroke-linecap:butt;fill-opacity:0.75;stroke-dasharray:none;"
     d="M 123.75000,188.61218 C 107.50000,222.36218 57.500000,276.11218 31.250000,284.86218"
     id="path1207"
     sodipodi:nodetypes="cc" />
  <path
     style="fill:none;fill-rule:evenodd;stroke:black;stroke-opacity:1;stroke-width:6.2500000;stroke-linejoin:miter;stroke-linecap:butt;fill-opacity:0.75;stroke-dasharray:none;"
     d="M 121.25000,204.86218 C 177.50000,211.11218 231.25000,193.61218 231.25000,193.61218 C 231.25000,193.61218 251.25000,259.86218 37.500000,447.36218"
     id="path1209"
     sodipodi:nodetypes="ccc" />
  <path
     style="fill:none;fill-rule:evenodd;stroke:black;stroke-opacity:1;stroke-width:6.2500000;stroke-linejoin:miter;stroke-linecap:butt;fill-opacity:0.75;stroke-dasharray:none;"
     d="M 70.000000,269.86218 C 132.50000,317.36218 138.75000,344.86218 143.75000,342.36218"
     id="path1210"
     sodipodi:nodetypes="cc" />
  <path
     style="fill:none;fill-rule:evenodd;stroke:black;stroke-opacity:1;stroke-width:6.2500000;stroke-linejoin:miter;stroke-linecap:butt;fill-opacity:0.75;stroke-dasharray:none;"
     d="M 122.50000,383.61218 C 167.50000,383.61218 160.00000,359.86218 305.00000,384.86218 C 308.75000,419.86218 297.50000,468.61218 292.50000,491.11218"
     id="path1212"
     sodipodi:nodetypes="ccc" />
  <path
     style="fill:none;fill-rule:evenodd;stroke:black;stroke-opacity:1;stroke-width:6.2500000;stroke-linejoin:miter;stroke-linecap:butt;fill-opacity:0.75;stroke-dasharray:none;"
     d="M 125.00000,496.11218 C 183.75000,482.36218 241.25000,482.36218 291.25000,492.36218"
     id="path1213" />
  <path
     style="fill:none;fill-opacity:0.75000000;fill-rule:evenodd;stroke:#000000;stroke-width:6.2500000;"
     d="M 116.25000,392.36218 C 128.75000,404.86218 127.50000,496.11218 127.50000,496.11218"
     id="path1221" />
  <path
     style="fill:none;fill-rule:evenodd;stroke:black;stroke-opacity:1;stroke-width:6.2500000;stroke-linejoin:miter;stroke-linecap:butt;fill-opacity:1.0000000;stroke-dasharray:none;"
     d="M 113.75000,571.11218 L 41.250000,644.86218"
     id="path1222" />
  <path
     style="fill:none;fill-rule:evenodd;stroke:black;stroke-opacity:1;stroke-width:6.2500000;stroke-linejoin:miter;stroke-linecap:butt;fill-opacity:1.0000000;stroke-dasharray:none;"
     d="M 111.25000,569.86218 L 201.25000,571.11218 L 41.250000,752.36218"
     id="path1223" />
  <path
     style="fill:none;fill-rule:evenodd;stroke:black;stroke-opacity:1;stroke-width:6.2500000;stroke-linejoin:miter;stroke-linecap:butt;fill-opacity:1.0000000;stroke-dasharray:none;"
     d="M 71.250000,614.86218 L 120.00000,657.36218"
     id="path1224" />
  <path
     style="fill:none;fill-rule:evenodd;stroke:black;stroke-opacity:1;stroke-width:6.2500000;stroke-linejoin:miter;stroke-linecap:butt;fill-opacity:1.0000000;stroke-dasharray:none;"
     d="M 113.75000,673.61218 L 226.25000,673.61218 L 225.00000,751.11218"
     id="path1225" />
  <path
     style="fill:none;fill-rule:evenodd;stroke:black;stroke-opacity:1;stroke-width:6.2500000;stroke-linejoin:miter;stroke-linecap:butt;fill-opacity:1.0000000;stroke-dasharray:none;"
     d="M 112.50000,671.11218 L 112.50000,749.86218 L 222.50000,749.86218"
     id="path1226" />
  <g
     id="g1335">
    <path
       style="fill:none;fill-rule:evenodd;stroke:black;stroke-opacity:1;stroke-width:6.2500000;stroke-linejoin:round;stroke-linecap:round;fill-opacity:0.75;stroke-dasharray:none;"
       d="M 396.25000,207.36218 C 392.50000,226.11218 366.25000,252.36218 353.75000,258.61218"
       id="path1231" />
    <path
       style="fill:none;fill-opacity:0.75000000;fill-rule:evenodd;stroke:#000000;stroke-width:6.2500000;stroke-linecap:round;stroke-linejoin:round;"
       d="M 398.75000,214.86218 C 415.00000,214.86218 446.25000,208.61218 446.25000,208.61218"
       id="path1232" />
    <path
       style="fill:none;fill-opacity:0.75000000;fill-rule:evenodd;stroke:#000000;stroke-width:6.2500000;stroke-linecap:round;stroke-linejoin:round;"
       d="M 446.25000,208.61218 C 438.75000,234.86218 408.75000,291.11218 360.00000,324.86218"
       id="path1233" />
    <path
       style="fill:none;fill-opacity:0.75000000;fill-rule:evenodd;stroke:#000000;stroke-width:6.2500000;stroke-linecap:round;stroke-linejoin:round;"
       d="M 373.75000,248.61218 C 392.50000,252.36218 406.25000,273.61218 406.25000,273.61218"
       id="path1234" />
    <path
       style="fill:none;fill-opacity:0.75000000;fill-rule:evenodd;stroke:#000000;stroke-width:6.2500000;stroke-linecap:round;stroke-linejoin:round;"
       d="M 403.75000,286.11218 C 403.75000,298.61218 403.75000,339.86218 403.75000,339.86218"
       id="path1236" />
    <path
       style="fill:none;fill-opacity:0.75000000;fill-rule:evenodd;stroke:#000000;stroke-width:6.2500000;stroke-linecap:round;stroke-linejoin:round;"
       d="M 408.75000,287.36218 C 423.75000,287.36218 477.50000,287.36218 477.50000,287.36218 L 476.25000,338.61218"
       id="path1239" />
    <path
       style="fill:none;fill-opacity:0.75000000;fill-rule:evenodd;stroke:#000000;stroke-width:6.2500000;stroke-linecap:round;stroke-linejoin:round;"
       d="M 407.50000,337.36218 L 476.25000,337.36218"
       id="path1240" />
  </g>
  <rect
     style="fill-rule:evenodd;stroke:none;stroke-width:0.87370405pt;fill:#009500;fill-opacity:1.0000000;"
     id="rect1303"
     width="249.04581"
     height="223.75000"
     x="419.85211"
     y="394.86218" />
  <g
     id="g1263">
    <path
       style="fill:none;fill-opacity:0.75000000;fill-rule:evenodd;stroke:#005900;stroke-width:6.2500000;stroke-linecap:round;stroke-linejoin:round;"
       d="M 516.87500,444.86218 C 513.12500,463.61218 486.87500,489.86218 474.37500,496.11218"
       id="path1241" />
    <path
       style="fill:none;fill-opacity:0.75000000;fill-rule:evenodd;stroke:#005900;stroke-width:6.2500000;stroke-linecap:round;stroke-linejoin:round;"
       d="M 519.37500,452.36218 C 535.62500,452.36218 566.87500,446.11218 566.87500,446.11218"
       id="path1242" />
    <path
       style="fill:none;fill-opacity:0.75000000;fill-rule:evenodd;stroke:#005900;stroke-width:6.2500000;stroke-linecap:round;stroke-linejoin:round;"
       d="M 566.87500,446.11218 C 559.37500,472.36218 529.37500,528.61218 480.62500,562.36218"
       id="path1243" />
    <path
       style="fill:none;fill-opacity:0.75000000;fill-rule:evenodd;stroke:#005900;stroke-width:6.2500000;stroke-linecap:round;stroke-linejoin:round;"
       d="M 494.37500,486.11218 C 513.12500,489.86218 526.87500,511.11218 526.87500,511.11218"
       id="path1244" />
    <path
       style="fill:none;fill-opacity:0.75000000;fill-rule:evenodd;stroke:#005900;stroke-width:6.2500000;stroke-linecap:round;stroke-linejoin:round;"
       d="M 524.37500,523.61218 C 524.37500,536.11218 524.37500,577.36218 524.37500,577.36218"
       id="path1245" />
    <path
       style="fill:none;fill-opacity:0.75000000;fill-rule:evenodd;stroke:#005900;stroke-width:6.2500000;stroke-linecap:round;stroke-linejoin:round;"
       d="M 529.37500,524.86218 C 544.37500,524.86218 598.12500,524.86218 598.12500,524.86218 L 596.87500,576.11218"
       id="path1246" />
    <path
       style="fill:none;fill-opacity:0.75000000;fill-rule:evenodd;stroke:#005900;stroke-width:6.2500000;stroke-linecap:round;stroke-linejoin:round;"
       d="M 528.12500,574.86218 L 596.87500,574.86218"
       id="path1247" />
  </g>
  <g
     id="g1271"
     transform="translate(2.500000,-2.500000)"
     style="fill:none;fill-opacity:1.0000000;stroke:#00c400;stroke-opacity:1.0000000;">
    <path
       style="fill:none;fill-opacity:1.0000000;fill-rule:evenodd;stroke:#00c400;stroke-width:6.2500000;stroke-linecap:round;stroke-linejoin:round;stroke-opacity:1.0000000;"
       d="M 516.87500,444.86218 C 513.12500,463.61218 486.87500,489.86218 474.37500,496.11218"
       id="path1272" />
    <path
       style="fill:none;fill-opacity:1.0000000;fill-rule:evenodd;stroke:#00c400;stroke-width:6.2500000;stroke-linecap:round;stroke-linejoin:round;stroke-opacity:1.0000000;"
       d="M 519.37500,452.36218 C 535.62500,452.36218 566.87500,446.11218 566.87500,446.11218"
       id="path1273" />
    <path
       style="fill:none;fill-opacity:1.0000000;fill-rule:evenodd;stroke:#00c400;stroke-width:6.2500000;stroke-linecap:round;stroke-linejoin:round;stroke-opacity:1.0000000;"
       d="M 566.87500,446.11218 C 559.37500,472.36218 529.37500,528.61218 480.62500,562.36218"
       id="path1274" />
    <path
       style="fill:none;fill-opacity:1.0000000;fill-rule:evenodd;stroke:#00c400;stroke-width:6.2500000;stroke-linecap:round;stroke-linejoin:round;stroke-opacity:1.0000000;"
       d="M 494.37500,486.11218 C 513.12500,489.86218 526.87500,511.11218 526.87500,511.11218"
       id="path1275" />
    <path
       style="fill:none;fill-opacity:1.0000000;fill-rule:evenodd;stroke:#00c400;stroke-width:6.2500000;stroke-linecap:round;stroke-linejoin:round;stroke-opacity:1.0000000;"
       d="M 524.37500,523.61218 C 524.37500,536.11218 524.37500,577.36218 524.37500,577.36218"
       id="path1276" />
    <path
       style="fill:none;fill-opacity:1.0000000;fill-rule:evenodd;stroke:#00c400;stroke-width:6.2500000;stroke-linecap:round;stroke-linejoin:round;stroke-opacity:1.0000000;"
       d="M 529.37500,524.86218 C 544.37500,524.86218 598.12500,524.86218 598.12500,524.86218 L 596.87500,576.11218"
       id="path1277" />
    <path
       style="fill:none;fill-opacity:1.0000000;fill-rule:evenodd;stroke:#00c400;stroke-width:6.2500000;stroke-linecap:round;stroke-linejoin:round;stroke-opacity:1.0000000;"
       d="M 528.12500,574.86218 L 596.87500,574.86218"
       id="path1278" />
  </g>
  <g
     id="g1287"
     transform="translate(5.000000,-5.000000)"
     style="fill:none;fill-opacity:1.0000000;stroke:#ffff00;stroke-opacity:1.0000000;">
    <path
       style="fill:none;fill-opacity:1.0000000;fill-rule:evenodd;stroke:#ffff00;stroke-width:6.2500000;stroke-linecap:round;stroke-linejoin:round;stroke-opacity:1.0000000;"
       d="M 516.87500,444.86218 C 513.12500,463.61218 486.87500,489.86218 474.37500,496.11218"
       id="path1288" />
    <path
       style="fill:none;fill-opacity:1.0000000;fill-rule:evenodd;stroke:#ffff00;stroke-width:6.2500000;stroke-linecap:round;stroke-linejoin:round;stroke-opacity:1.0000000;"
       d="M 519.37500,452.36218 C 535.62500,452.36218 566.87500,446.11218 566.87500,446.11218"
       id="path1289" />
    <path
       style="fill:none;fill-opacity:1.0000000;fill-rule:evenodd;stroke:#ffff00;stroke-width:6.2500000;stroke-linecap:round;stroke-linejoin:round;stroke-opacity:1.0000000;"
       d="M 566.87500,446.11218 C 559.37500,472.36218 529.37500,528.61218 480.62500,562.36218"
       id="path1290" />
    <path
       style="fill:none;fill-opacity:1.0000000;fill-rule:evenodd;stroke:#ffff00;stroke-width:6.2500000;stroke-linecap:round;stroke-linejoin:round;stroke-opacity:1.0000000;"
       d="M 494.37500,486.11218 C 513.12500,489.86218 526.87500,511.11218 526.87500,511.11218"
       id="path1291" />
    <path
       style="fill:none;fill-opacity:1.0000000;fill-rule:evenodd;stroke:#ffff00;stroke-width:6.2500000;stroke-linecap:round;stroke-linejoin:round;stroke-opacity:1.0000000;"
       d="M 524.37500,523.61218 C 524.37500,536.11218 524.37500,577.36218 524.37500,577.36218"
       id="path1292" />
    <path
       style="fill:none;fill-opacity:1.0000000;fill-rule:evenodd;stroke:#ffff00;stroke-width:6.2500000;stroke-linecap:round;stroke-linejoin:round;stroke-opacity:1.0000000;"
       d="M 529.37500,524.86218 C 544.37500,524.86218 598.12500,524.86218 598.12500,524.86218 L 596.87500,576.11218"
       id="path1293" />
    <path
       style="fill:none;fill-opacity:1.0000000;fill-rule:evenodd;stroke:#ffff00;stroke-width:6.2500000;stroke-linecap:round;stroke-linejoin:round;stroke-opacity:1.0000000;"
       d="M 528.12500,574.86218 L 596.87500,574.86218"
       id="path1294" />
  </g>
  <g
     id="g1295"
     transform="translate(7.500000,-7.500000)"
     style="fill:none;fill-opacity:1.0000000;stroke:#ffffd5;stroke-opacity:1.0000000;">
    <path
       style="fill:none;fill-opacity:1.0000000;fill-rule:evenodd;stroke:#ffffd5;stroke-width:6.2500000;stroke-linecap:round;stroke-linejoin:round;stroke-opacity:1.0000000;"
       d="M 516.87500,444.86218 C 513.12500,463.61218 486.87500,489.86218 474.37500,496.11218"
       id="path1296" />
    <path
       style="fill:none;fill-opacity:1.0000000;fill-rule:evenodd;stroke:#ffffd5;stroke-width:6.2500000;stroke-linecap:round;stroke-linejoin:round;stroke-opacity:1.0000000;"
       d="M 519.37500,452.36218 C 535.62500,452.36218 566.87500,446.11218 566.87500,446.11218"
       id="path1297" />
    <path
       style="fill:none;fill-opacity:1.0000000;fill-rule:evenodd;stroke:#ffffd5;stroke-width:6.2500000;stroke-linecap:round;stroke-linejoin:round;stroke-opacity:1.0000000;"
       d="M 566.87500,446.11218 C 559.37500,472.36218 529.37500,528.61218 480.62500,562.36218"
       id="path1298" />
    <path
       style="fill:none;fill-opacity:1.0000000;fill-rule:evenodd;stroke:#ffffd5;stroke-width:6.2500000;stroke-linecap:round;stroke-linejoin:round;stroke-opacity:1.0000000;"
       d="M 494.37500,486.11218 C 513.12500,489.86218 526.87500,511.11218 526.87500,511.11218"
       id="path1299" />
    <path
       style="fill:none;fill-opacity:1.0000000;fill-rule:evenodd;stroke:#ffffd5;stroke-width:6.2500000;stroke-linecap:round;stroke-linejoin:round;stroke-opacity:1.0000000;"
       d="M 524.37500,523.61218 C 524.37500,536.11218 524.37500,577.36218 524.37500,577.36218"
       id="path1300" />
    <path
       style="fill:none;fill-opacity:1.0000000;fill-rule:evenodd;stroke:#ffffd5;stroke-width:6.2500000;stroke-linecap:round;stroke-linejoin:round;stroke-opacity:1.0000000;"
       d="M 529.37500,524.86218 C 544.37500,524.86218 598.12500,524.86218 598.12500,524.86218 L 596.87500,576.11218"
       id="path1301" />
    <path
       style="fill:none;fill-opacity:1.0000000;fill-rule:evenodd;stroke:#ffffd5;stroke-width:6.2500000;stroke-linecap:round;stroke-linejoin:round;stroke-opacity:1.0000000;"
       d="M 528.12500,574.86218 L 596.87500,574.86218"
       id="path1302" />
  </g>
  <path
     style="fill:none;fill-rule:evenodd;stroke:#ffff00;stroke-opacity:1.0000000;stroke-width:6.2500000;stroke-linejoin:miter;stroke-linecap:butt;fill-opacity:0.75;stroke-dasharray:none;"
     d="M 350.00000,688.61218 L 738.75000,354.86218"
     id="path1306"
     transform="translate(-70.00000,-95.00000)" />
  <path
     style="fill:none;fill-rule:evenodd;stroke:#ffff00;stroke-opacity:1.0000000;stroke-width:6.2500000;stroke-linejoin:miter;stroke-linecap:butt;fill-opacity:0.75;stroke-dasharray:none;"
     d="M 350.00000,688.61218 L 738.75000,354.86218"
     id="path1307"
     transform="translate(-71.25000,-82.50000)" />
  <path
     style="fill:none;fill-rule:evenodd;stroke:#ffff00;stroke-opacity:1.0000000;stroke-width:6.2500000;stroke-linejoin:miter;stroke-linecap:butt;fill-opacity:0.75;stroke-dasharray:none;"
     d="M 350.00000,688.61218 L 738.75000,354.86218"
     id="path1308"
     transform="translate(-63.75000,-77.50000)" />
  <path
     style="fill:none;fill-rule:evenodd;stroke:#ffff00;stroke-opacity:1.0000000;stroke-width:6.2500000;stroke-linejoin:miter;stroke-linecap:butt;fill-opacity:0.75;stroke-dasharray:none;"
     d="M 410.00000,772.36218 L 798.75000,438.61218"
     id="path1309" />
  <path
     style="fill:none;fill-rule:evenodd;stroke:#ffff00;stroke-opacity:1.0000000;stroke-width:6.2500000;stroke-linejoin:miter;stroke-linecap:butt;fill-opacity:0.75;stroke-dasharray:none;"
     d="M 417.50000,777.36218 L 806.25000,443.61218"
     id="path1305" />
  <path
     style="fill:none;fill-rule:evenodd;stroke:#ffff00;stroke-opacity:1.0000000;stroke-width:6.2500000;stroke-linejoin:miter;stroke-linecap:butt;fill-opacity:0.75;stroke-dasharray:none;"
     d="M 422.50000,784.86218 L 811.25000,451.11218"
     id="path1319" />
  <g
     id="g1358">
    <path
       style="fill:none;fill-opacity:0.75000000;fill-rule:evenodd;stroke:#000000;stroke-width:1.8269218;stroke-linecap:round;stroke-linejoin:round;stroke-dasharray:none;"
       d="M 582.93356,236.02209 C 582.29167,239.23155 577.79842,243.72479 575.65878,244.79461"
       id="path1320"
       transform="matrix(0.684211,0.000000,0.000000,0.684211,-94.86862,80.61429)" />
    <path
       style="fill:none;fill-opacity:0.75000000;fill-rule:evenodd;stroke:#000000;stroke-width:1.8269218;stroke-linecap:round;stroke-linejoin:round;stroke-dasharray:none;"
       d="M 583.36149,237.30588 C 586.14302,237.30588 591.49212,236.23606 591.49212,236.23606"
       id="path1321"
       transform="matrix(0.684211,0.000000,0.000000,0.684211,-94.86862,80.61429)" />
    <path
       style="fill:none;fill-opacity:0.75000000;fill-rule:evenodd;stroke:#000000;stroke-width:1.8269218;stroke-linecap:round;stroke-linejoin:round;stroke-dasharray:none;"
       d="M 591.49212,236.23606 C 590.20833,240.72930 585.07320,250.35768 576.72860,256.13470"
       id="path1322"
       transform="matrix(0.684211,0.000000,0.000000,0.684211,-94.86862,80.61429)" />
    <path
       style="fill:none;fill-opacity:0.75000000;fill-rule:evenodd;stroke:#000000;stroke-width:1.8269218;stroke-linecap:round;stroke-linejoin:round;stroke-dasharray:none;"
       d="M 579.08221,243.08290 C 582.29167,243.72479 584.64527,247.36218 584.64527,247.36218"
       id="path1323"
       transform="matrix(0.684211,0.000000,0.000000,0.684211,-94.86862,80.61429)" />
    <path
       style="fill:none;fill-opacity:0.75000000;fill-rule:evenodd;stroke:#000000;stroke-width:1.8269218;stroke-linecap:round;stroke-linejoin:round;stroke-dasharray:none;"
       d="M 584.21734,249.50182 C 584.21734,251.64146 584.21734,258.70227 584.21734,258.70227"
       id="path1324"
       transform="matrix(0.684211,0.000000,0.000000,0.684211,-94.86862,80.61429)" />
    <path
       style="fill:none;fill-opacity:0.75000000;fill-rule:evenodd;stroke:#000000;stroke-width:1.8269218;stroke-linecap:round;stroke-linejoin:round;stroke-dasharray:none;"
       d="M 585.07320,249.71579 C 587.64077,249.71579 596.84122,249.71579 596.84122,249.71579 L 596.62725,258.48831"
       id="path1325"
       transform="matrix(0.684211,0.000000,0.000000,0.684211,-94.86862,80.61429)" />
    <path
       style="fill:none;fill-opacity:0.75000000;fill-rule:evenodd;stroke:#000000;stroke-width:1.8269218;stroke-linecap:round;stroke-linejoin:round;stroke-dasharray:none;"
       d="M 584.85923,258.27434 L 596.62725,258.27434"
       id="path1326"
       transform="matrix(0.684211,0.000000,0.000000,0.684211,-94.86862,80.61429)" />
  </g>
  <g
     id="g1343"
     transform="translate(-278.7500,-40.00000)">
    <path
       style="fill:none;fill-opacity:0.75000000;fill-rule:evenodd;stroke:#000000;stroke-width:1.0698198;stroke-linecap:round;stroke-linejoin:round;"
       d="M 582.93356,236.02209 C 582.29167,239.23155 577.79842,243.72479 575.65878,244.79461"
       id="path1344" />
    <path
       style="fill:none;fill-opacity:0.75000000;fill-rule:evenodd;stroke:#000000;stroke-width:1.0698198;stroke-linecap:round;stroke-linejoin:round;"
       d="M 583.36149,237.30588 C 586.14302,237.30588 591.49212,236.23606 591.49212,236.23606"
       id="path1345" />
    <path
       style="fill:none;fill-opacity:0.75000000;fill-rule:evenodd;stroke:#000000;stroke-width:1.0698198;stroke-linecap:round;stroke-linejoin:round;"
       d="M 591.49212,236.23606 C 590.20833,240.72930 585.07320,250.35768 576.72860,256.13470"
       id="path1346" />
    <path
       style="fill:none;fill-opacity:0.75000000;fill-rule:evenodd;stroke:#000000;stroke-width:1.0698198;stroke-linecap:round;stroke-linejoin:round;"
       d="M 579.08221,243.08290 C 582.29167,243.72479 584.64527,247.36218 584.64527,247.36218"
       id="path1347" />
    <path
       style="fill:none;fill-opacity:0.75000000;fill-rule:evenodd;stroke:#000000;stroke-width:1.0698198;stroke-linecap:round;stroke-linejoin:round;"
       d="M 584.21734,249.50182 C 584.21734,251.64146 584.21734,258.70227 584.21734,258.70227"
       id="path1348" />
    <path
       style="fill:none;fill-opacity:0.75000000;fill-rule:evenodd;stroke:#000000;stroke-width:1.0698198;stroke-linecap:round;stroke-linejoin:round;"
       d="M 585.07320,249.71579 C 587.64077,249.71579 596.84122,249.71579 596.84122,249.71579 L 596.62725,258.48831"
       id="path1349" />
    <path
       style="fill:none;fill-opacity:0.75000000;fill-rule:evenodd;stroke:#000000;stroke-width:1.0698198;stroke-linecap:round;stroke-linejoin:round;"
       d="M 584.85923,258.27434 L 596.62725,258.27434"
       id="path1350" />
  </g>
</svg>
